<?xml version="1.0" encoding="utf-8"?>
<!-- Generator: Adobe Illustrator 16.0.0, SVG Export Plug-In . SVG Version: 6.00 Build 0)  -->
<!DOCTYPE svg PUBLIC "-//W3C//DTD SVG 1.1//EN" "http://www.w3.org/Graphics/SVG/1.1/DTD/svg11.dtd">
<svg version="1.1" id="Layer_1" xmlns="http://www.w3.org/2000/svg" xmlns:xlink="http://www.w3.org/1999/xlink" x="0px" y="0px"
	 width="125px" height="50px" viewBox="0 0 125 50" enable-background="new 0 0 125 50" xml:space="preserve">
<g>
	<path fill="#FFFFFF" d="M63.602,11.867c0.567,0,1.123,0.083,1.664,0.248c0.541,0.165,0.943,0.328,1.207,0.488l0.381,0.254
		l-0.967,1.905c-0.076-0.051-0.182-0.117-0.316-0.197c-0.135-0.081-0.391-0.188-0.762-0.325c-0.373-0.135-0.72-0.202-1.041-0.202
		c-0.397,0-0.705,0.084-0.921,0.253s-0.324,0.398-0.324,0.686c0,0.144,0.051,0.278,0.152,0.4c0.102,0.122,0.275,0.254,0.521,0.393
		c0.244,0.14,0.462,0.253,0.646,0.337c0.188,0.085,0.475,0.211,0.863,0.382c0.679,0.288,1.256,0.679,1.734,1.174
		s0.717,1.056,0.717,1.683c0,0.602-0.106,1.125-0.323,1.575c-0.216,0.449-0.513,0.8-0.89,1.054c-0.377,0.253-0.793,0.443-1.25,0.565
		s-0.952,0.185-1.486,0.185c-0.457,0-0.906-0.047-1.346-0.14c-0.44-0.093-0.809-0.21-1.105-0.348
		c-0.296-0.14-0.562-0.279-0.799-0.414c-0.238-0.136-0.412-0.25-0.521-0.343l-0.166-0.14l1.195-2.006
		c0.102,0.084,0.241,0.193,0.418,0.323c0.178,0.132,0.493,0.308,0.946,0.528c0.453,0.22,0.852,0.329,1.2,0.329
		c1.009,0,1.512-0.342,1.512-1.028c0-0.144-0.036-0.277-0.107-0.4c-0.072-0.122-0.199-0.246-0.382-0.368
		c-0.182-0.124-0.343-0.22-0.481-0.292c-0.141-0.071-0.367-0.182-0.687-0.331c-0.318-0.148-0.553-0.26-0.705-0.336
		c-0.635-0.313-1.127-0.705-1.473-1.174c-0.347-0.47-0.521-0.977-0.521-1.519c0-0.94,0.348-1.707,1.042-2.305
		C61.921,12.166,62.712,11.867,63.602,11.867z"/>
	<path fill="#FFFFFF" d="M67.131,12.057h2.871l2.184,3.353l2.187-3.353h2.87l-3.861,5.779v4.699h-2.387v-4.699L67.131,12.057z"/>
	<path fill="#FFFFFF" d="M83.68,12.057v2.097h-3.671v2.082H83.4v2.095h-3.392v4.204h-2.388V12.057H83.68z"/>
	<path fill="#FFFFFF" d="M84.354,17.291c0-1.517,0.517-2.799,1.549-3.849c1.033-1.049,2.277-1.575,3.732-1.575
		c1.467,0,2.711,0.522,3.734,1.568c1.023,1.047,1.537,2.332,1.537,3.855c0,1.531-0.506,2.821-1.514,3.867
		c-1.007,1.045-2.26,1.568-3.759,1.568c-1.532,0-2.796-0.519-3.79-1.556C84.85,20.133,84.354,18.838,84.354,17.291z M86.93,17.291
		c0,0.549,0.086,1.052,0.254,1.504c0.17,0.453,0.467,0.836,0.891,1.149c0.424,0.312,0.943,0.471,1.562,0.471
		c0.89,0,1.562-0.306,2.013-0.915c0.455-0.61,0.682-1.346,0.682-2.209c0-0.856-0.23-1.59-0.691-2.205
		c-0.463-0.613-1.13-0.921-2.002-0.921c-0.863,0-1.529,0.308-1.998,0.921C87.165,15.7,86.93,16.434,86.93,17.291z"/>
	<path fill="#FFFFFF" d="M98.348,16.032v6.502h-2.389V12.057h2.389l4.166,6.502h0.024v-6.502h2.388v10.478h-2.388l-4.166-6.502
		L98.348,16.032L98.348,16.032z"/>
	<path fill="#FFFFFF" d="M59.741,28.799h3.821c1.067,0,1.933,0.275,2.592,0.824c0.66,0.551,0.992,1.352,0.992,2.4
		c0,1.047-0.336,1.873-1.004,2.471c-0.67,0.596-1.529,0.895-2.58,0.895h-1.434v3.887h-2.388V28.799z M62.128,33.482h0.673
		c0.533,0,0.973-0.107,1.314-0.322c0.344-0.215,0.515-0.568,0.515-1.061c0-0.5-0.171-0.857-0.515-1.072
		c-0.342-0.217-0.781-0.324-1.314-0.324h-0.673V33.482z"/>
	<path fill="#FFFFFF" d="M67.729,34.031c0-1.516,0.517-2.799,1.551-3.85c1.033-1.05,2.275-1.574,3.732-1.574
		c1.465,0,2.709,0.522,3.733,1.567c1.024,1.048,1.536,2.332,1.536,3.854c0,1.531-0.504,2.82-1.512,3.865
		c-1.008,1.047-2.261,1.568-3.759,1.568c-1.532,0-2.796-0.518-3.79-1.555C68.225,36.873,67.729,35.578,67.729,34.031z
		 M70.307,34.031c0,0.549,0.086,1.051,0.254,1.504c0.17,0.453,0.467,0.836,0.89,1.148c0.424,0.313,0.944,0.471,1.562,0.471
		c0.889,0,1.561-0.305,2.012-0.914c0.455-0.611,0.682-1.346,0.682-2.209c0-0.855-0.23-1.59-0.693-2.205
		c-0.462-0.613-1.128-0.92-1.998-0.92c-0.865,0-1.531,0.307-2,0.92C70.541,32.441,70.307,33.176,70.307,34.031z"/>
	<path fill="#FFFFFF" d="M79.336,28.799h3.035c1.456,0,2.701,0.496,3.734,1.49c1.03,0.996,1.549,2.244,1.549,3.742
		c0,1.506-0.516,2.756-1.545,3.752c-1.026,0.994-2.273,1.492-3.738,1.492h-3.035V28.799z M81.725,37.141h0.366
		c0.873,0,1.586-0.293,2.142-0.881c0.555-0.59,0.836-1.328,0.845-2.219c0-0.887-0.277-1.629-0.832-2.221
		c-0.556-0.594-1.271-0.889-2.153-0.889h-0.367V37.141L81.725,37.141z"/>
	<path fill="#FFFFFF" d="M94.283,37.115c0.365,0,0.719-0.055,1.061-0.164c0.344-0.111,0.596-0.217,0.756-0.318l0.241-0.166
		l1.017,2.033c-0.033,0.025-0.082,0.061-0.14,0.102c-0.061,0.043-0.196,0.121-0.413,0.236c-0.216,0.113-0.447,0.213-0.691,0.297
		c-0.246,0.086-0.567,0.16-0.967,0.229c-0.398,0.069-0.808,0.102-1.23,0.102c-0.973,0-1.896-0.237-2.77-0.717
		s-1.573-1.138-2.107-1.976c-0.532-0.84-0.801-1.744-0.801-2.717c0-0.738,0.156-1.442,0.472-2.121
		c0.312-0.678,0.729-1.258,1.25-1.74c0.521-0.481,1.129-0.868,1.823-1.155c0.693-0.287,1.404-0.433,2.133-0.433
		c0.679,0,1.302,0.08,1.874,0.242c0.571,0.16,0.976,0.32,1.212,0.482l0.355,0.24l-1.017,2.033c-0.059-0.051-0.147-0.113-0.267-0.187
		c-0.119-0.071-0.355-0.168-0.711-0.285c-0.355-0.118-0.715-0.178-1.08-0.178c-0.575,0-1.092,0.094-1.551,0.278
		c-0.455,0.187-0.816,0.433-1.084,0.736c-0.268,0.305-0.472,0.633-0.609,0.984c-0.141,0.352-0.21,0.709-0.21,1.074
		c0,0.795,0.298,1.508,0.896,2.139C92.32,36.801,93.175,37.115,94.283,37.115z"/>
	<path fill="#FFFFFF" d="M103.593,28.799l4.229,10.477h-2.566l-0.773-2.096h-3.987l-0.774,2.096h-2.566l4.229-10.477H103.593z
		 M103.669,35.084l-1.169-3.047h-0.025l-1.168,3.047H103.669z"/>
	<path fill="#FFFFFF" d="M112.088,28.607c0.566,0,1.122,0.082,1.664,0.248s0.943,0.328,1.207,0.487l0.381,0.255l-0.966,1.905
		c-0.076-0.051-0.183-0.117-0.315-0.196c-0.138-0.08-0.391-0.189-0.764-0.324c-0.372-0.135-0.72-0.203-1.041-0.203
		c-0.398,0-0.705,0.084-0.921,0.254s-0.325,0.398-0.325,0.686c0,0.143,0.053,0.277,0.154,0.4s0.273,0.254,0.521,0.393
		c0.244,0.141,0.461,0.254,0.646,0.338s0.475,0.211,0.863,0.381c0.678,0.287,1.256,0.681,1.732,1.174
		c0.479,0.494,0.719,1.058,0.719,1.685c0,0.603-0.108,1.125-0.324,1.574c-0.215,0.448-0.512,0.799-0.889,1.055
		c-0.377,0.253-0.795,0.441-1.252,0.564c-0.455,0.122-0.951,0.184-1.484,0.184c-0.459,0-0.906-0.047-1.348-0.139
		c-0.439-0.095-0.81-0.211-1.104-0.351c-0.298-0.139-0.563-0.276-0.8-0.412c-0.238-0.137-0.411-0.25-0.521-0.344l-0.164-0.141
		l1.192-2.006c0.102,0.084,0.241,0.193,0.42,0.322c0.178,0.133,0.491,0.309,0.946,0.528c0.453,0.22,0.853,0.33,1.199,0.33
		c1.008,0,1.512-0.344,1.512-1.028c0-0.144-0.036-0.277-0.108-0.4c-0.071-0.121-0.198-0.246-0.38-0.367
		c-0.184-0.123-0.344-0.221-0.482-0.293c-0.142-0.07-0.369-0.182-0.687-0.33c-0.318-0.148-0.554-0.26-0.705-0.336
		c-0.636-0.312-1.127-0.705-1.474-1.174c-0.348-0.471-0.521-0.977-0.521-1.518c0-0.941,0.347-1.709,1.041-2.308
		C110.408,28.906,111.199,28.607,112.088,28.607z"/>
	<path fill="#FFFFFF" d="M116.102,30.895v-2.096h7.366v2.096h-2.489v8.381h-2.388v-8.381H116.102z"/>
</g>
<path fill="#FFFFFF" d="M25.423,1.109C12.229,1.109,1.532,11.806,1.532,25c0,13.193,10.696,23.891,23.891,23.891
	c13.195,0,23.892-10.697,23.892-23.891C49.314,11.806,38.618,1.109,25.423,1.109z M22.104,14L22.104,14h4.066
	c-0.345,0-0.526,1.271-0.526,2.089c0,0.751,0.152,1.911,0.444,1.911h-3.984l0,0c-1.511,0-2.209,1.276-2.209,2.502
	S20.593,23,22.104,23l0,0H28v4h-5.896l0,0c-3.779,0-6.675-2.616-6.675-6.309C15.429,17,18.325,14,22.104,14z M20,36.988l-4,1.385
	v-4.062l4,1.34V36.988z M29.216,37H20v-1h9.216c2.709,0,4.806-2.355,4.806-5.062c0-2.709-2.021-5.065-5.021-5.065V24.53
	c3,0,6.36,2.789,6.36,6.234C35.36,34.212,32.663,37,29.216,37z M31.001,20.557c-2.465,0-4.464-2-4.464-4.464
	c0-2.467,2-4.466,4.464-4.466c2.466,0,4.466,2,4.466,4.466C35.468,18.557,33.468,20.557,31.001,20.557z"/>
</svg>
